<svg xmlns="http://www.w3.org/2000/svg" viewBox="0 0 512 512" style="height: 512px; width: 512px;">

<circle cx="256" cy="256" r="256" fill="#BF452A"></circle>
<g transform="translate(0,0)">
<path transform="translate(82,82) scale(0.7)" fill="#590202"  d="M391.943,143.047A8,8,0,0,0,384,136H128a8,8,0,0,0-7.943,7.047l-5.89,49.083a142.851,142.851,0,1,0,283.666,0Z"/>
<path transform="translate(82,82) scale(0.7)" fill="#FFF" d="M429.985,184.68,409.342,33.3A20.074,20.074,0,0,0,389.525,16H122.475a20.074,20.074,0,0,0-19.817,17.3L82.015,184.68A175.643,175.643,0,0,0,225.27,381.316a8.056,8.056,0,0,1,6.73,7.9v47.2a8.041,8.041,0,0,1-6.869,7.92l-70.836,10.119a21.106,21.106,0,0,0-18.273,19.731,20.691,20.691,0,0,0,5.751,15.372A20.956,20.956,0,0,0,156.853,496H354.776a21.194,21.194,0,0,0,21.14-18.969A20.864,20.864,0,0,0,358.1,454.5l-71.229-10.175a8.041,8.041,0,0,1-6.868-7.92v-47.2a8.056,8.056,0,0,1,6.73-7.9A175.643,175.643,0,0,0,429.985,184.68ZM384.442,303.129a158.73,158.73,0,0,1-100.483,62.43A24.03,24.03,0,0,0,264,389.211v47.2a24.116,24.116,0,0,0,20.605,23.758l71.229,10.176a4.867,4.867,0,0,1,4.145,5.264,5.09,5.09,0,0,1-5.2,4.393H156.853a4.855,4.855,0,0,1-4.848-5.091,5.167,5.167,0,0,1,4.554-4.622l70.835-10.12A24.116,24.116,0,0,0,248,436.409v-47.2a24.03,24.03,0,0,0-19.959-23.652A159.649,159.649,0,0,1,97.868,186.842L118.512,35.459A4.013,4.013,0,0,1,122.475,32h267.05a4.013,4.013,0,0,1,3.963,3.46l20.644,151.382A158.594,158.594,0,0,1,384.442,303.129Z"/>

</g>
</svg>